# xmcd
#
# Track frame offsets:
#	150
#	21629
#	43832
#	60739
#	78836
#	93056
#	107044
#	127688
#	141778
#	155725
#	168550
#	182345
#	194951
#	211990
#	229537
#	245573
#	259430
#	274131
#	288643
#	308646
#	325668
#	341081
#
# Disc length: 4680 seconds
#
# Revision: 1
# Processed by: cddbd v1.5.2PL0 Copyright (c) Steve Scherf et al.
# Submitted via: audiograbber 1.83.01
#
DISCID=46124616
DTITLE=Artisti Vari - Striscia La Compilation
DYEAR=2010
DGENRE=Pop
TTITLE0=Black Eyed Peas - Meet Me Halfway
TTITLE1=Lady Gaga - Bad Romance
TTITLE2=Mika - Rain
TTITLE3=David Guetta - One Love (ft. Estelle)
TTITLE4=Shakira - She Wolf
TTITLE5=Edward Maya - Stereo Love (ft. Vika Jigulina)
TTITLE6=Cheryl Cole - 3 Words (ft. Will. I. Am)
TTITLE7=Lily Allen - 22
TTITLE8=Bob Sinclar - New New New
TTITLE9=Gramophonedzie - Why Don't You
TTITLE10=Gabriella Cilmi - On A Mission
TTITLE11=Florence and the Machine - You've Got The Love
TTITLE12=Owl city - Fireflies
TTITLE13=Timbaland - Morning After Dark (ft. Nelly Furtado and Soshy)
TTITLE14=Jay Sean - Down (ft. Lil Wayne)
TTITLE15=Pixie Lott - Boys And Girls
TTITLE16=Anjulie - Boom
TTITLE17=Noisettes - Never Forget You
TTITLE18=Gabry Ponte - Don't Let Be Misunderstood (ft. Cristian Marchi, Sergio 
TTITLE18=D'Angelo, Andrea Love)
TTITLE19=Wolfmother - New Moon Rising
TTITLE20=Selma Hernandes - Musica (Pra Dancar)
TTITLE21=Gabibbo - Veleno E Veline
EXTD=Tag corretti
EXTT0=
EXTT1=
EXTT2=
EXTT3=
EXTT4=
EXTT5=
EXTT6=
EXTT7=
EXTT8=
EXTT9=
EXTT10=
EXTT11=
EXTT12=
EXTT13=
EXTT14=
EXTT15=
EXTT16=
EXTT17=
EXTT18=
EXTT19=
EXTT20=
EXTT21=
PLAYORDER=
